<svg width="50" height="46" viewBox="0 0 50 46" fill="none" xmlns="http://www.w3.org/2000/svg" xmlns:xlink="http://www.w3.org/1999/xlink">
<path d="M41.68,7.22L38.851,10.048L38.852,10.049L41.68,7.22ZM33.9,3.996L33.9,7.996L33.9,3.996ZM26.12,7.22L28.948,10.048L28.949,10.048L26.12,7.22ZM24,9.34L21.172,12.168C22.734,13.731 25.266,13.731 26.828,12.168L24,9.34ZM21.88,7.22L19.052,10.048L19.052,10.048L21.88,7.22ZM6.32,22.78L3.492,25.608L3.492,25.608L6.32,22.78ZM24,40.46L21.172,43.288C22.734,44.851 25.266,44.851 26.828,43.288L24,40.46ZM41.68,22.78L38.852,19.951L38.852,19.952L41.68,22.78ZM44.509,4.392C43.116,2.999 41.462,1.893 39.642,1.139L36.58,8.529C37.429,8.881 38.201,9.397 38.851,10.048L44.509,4.392ZM39.642,1.139C37.822,0.385 35.87,-0.004 33.9,-0.004L33.9,7.996C34.82,7.996 35.73,8.177 36.58,8.529L39.642,1.139ZM33.9,-0.004C31.93,-0.004 29.978,0.385 28.158,1.139L31.22,8.529C32.07,8.177 32.98,7.996 33.9,7.996L33.9,-0.004ZM28.158,1.139C26.338,1.893 24.684,2.999 23.291,4.392L28.949,10.048C29.599,9.397 30.371,8.881 31.22,8.529L28.158,1.139ZM23.292,4.392L21.172,6.512L26.828,12.168L28.948,10.048L23.292,4.392ZM26.828,6.512L24.708,4.392L19.052,10.048L21.172,12.168L26.828,6.512ZM24.708,4.392C21.895,1.578 18.079,-0.003 14.1,-0.003L14.1,7.997C15.957,7.997 17.738,8.735 19.052,10.048L24.708,4.392ZM14.1,-0.003C10.121,-0.003 6.305,1.578 3.492,4.392L9.148,10.048C10.462,8.735 12.243,7.997 14.1,7.997L14.1,-0.003ZM3.492,4.392C0.678,7.205 -0.903,11.021 -0.903,15L7.097,15C7.097,13.143 7.835,11.362 9.148,10.048L3.492,4.392ZM-0.903,15C-0.903,18.979 0.678,22.795 3.492,25.608L9.148,19.952C7.835,18.638 7.097,16.857 7.097,15L-0.903,15ZM44.508,25.609C45.901,24.216 47.007,22.562 47.761,20.742L40.37,17.68C40.018,18.529 39.503,19.301 38.852,19.951L44.508,25.609ZM47.761,20.742C48.515,18.922 48.904,16.97 48.904,15L40.904,15C40.904,15.92 40.722,16.83 40.37,17.68L47.761,20.742ZM48.904,15C48.904,13.03 48.515,11.078 47.761,9.258L40.37,12.32C40.722,13.17 40.904,14.08 40.904,15L48.904,15ZM47.761,9.258C47.007,7.438 45.901,5.784 44.508,4.391L38.852,10.049C39.503,10.699 40.018,11.471 40.37,12.32L47.761,9.258ZM3.492,25.608L21.172,43.288L26.828,37.632L9.148,19.952L3.492,25.608ZM26.828,43.288L44.508,25.608L38.852,19.952L21.172,37.632L26.828,43.288Z" fill="#1E1E1E"/>
</svg>
