<svg width="52" height="50" viewBox="0 0 52 50" fill="none" xmlns="http://www.w3.org/2000/svg" xmlns:xlink="http://www.w3.org/1999/xlink">
<path d="M4,0C1.791,0 0,1.791 0,4C0,6.209 1.791,8 4,8L4,0ZM12,4L15.922,3.215C15.548,1.346 13.907,0 12,0L12,4ZM17.36,30.78L21.283,30.001L21.282,29.995L17.36,30.78ZM21.36,34L21.36,30C21.334,30 21.309,30 21.283,30.001L21.36,34ZM40.8,34L40.877,30.001C40.851,30 40.826,30 40.8,30L40.8,34ZM44.8,30.78L48.723,31.559C48.725,31.549 48.727,31.539 48.729,31.529L44.8,30.78ZM48,14L51.929,14.749C52.153,13.578 51.842,12.369 51.082,11.45C50.322,10.532 49.192,10 48,10L48,14ZM14,10C11.791,10 10,11.791 10,14C10,16.209 11.791,18 14,18L14,10ZM18,44C18,42.895 18.895,42 20,42L20,50C23.314,50 26,47.314 26,44L18,44ZM20,42C21.105,42 22,42.895 22,44L14,44C14,47.314 16.686,50 20,50L20,42ZM22,44C22,45.105 21.105,46 20,46L20,38C16.686,38 14,40.686 14,44L22,44ZM20,46C18.895,46 18,45.105 18,44L26,44C26,40.686 23.314,38 20,38L20,46ZM40,44C40,42.895 40.895,42 42,42L42,50C45.314,50 48,47.314 48,44L40,44ZM42,42C43.105,42 44,42.895 44,44L36,44C36,47.314 38.686,50 42,50L42,42ZM44,44C44,45.105 43.105,46 42,46L42,38C38.686,38 36,40.686 36,44L44,44ZM42,46C40.895,46 40,45.105 40,44L48,44C48,40.686 45.314,38 42,38L42,46ZM4,8L12,8L12,0L4,0L4,8ZM8.078,4.785L13.438,31.565L21.282,29.995L15.922,3.215L8.078,4.785ZM13.437,31.559C13.802,33.401 14.804,35.055 16.267,36.232L21.283,30.001L21.283,30.001L13.437,31.559ZM16.267,36.232C17.729,37.41 19.559,38.035 21.437,37.999L21.283,30.001L21.283,30.001L16.267,36.232ZM21.36,38L40.8,38L40.8,30L21.36,30L21.36,38ZM40.723,37.999C42.601,38.035 44.431,37.41 45.893,36.232L40.877,30.001L40.877,30.001L40.723,37.999ZM45.893,36.232C47.356,35.055 48.358,33.401 48.723,31.559L40.877,30.001L40.877,30.001L45.893,36.232ZM48.729,31.529L51.929,14.749L44.071,13.251L40.871,30.031L48.729,31.529ZM48,10L14,10L14,18L48,18L48,10Z" fill="#1E1E1E"/>
</svg>
