<svg width="346" height="42" viewBox="0 0 346 42" fill="none" xmlns="http://www.w3.org/2000/svg" xmlns:xlink="http://www.w3.org/1999/xlink">
<line x1="16" y1="21" x2="310" y2="21" stroke="#FFC861" stroke-width="3" stroke-miterlimit="3.999327"/>
<rect  x="0" y="0" width="40" height="40" rx="31" fill="#FFB01D" stroke="#FFB01D" stroke-width="1" stroke-miterlimit="3.999327"/>
<path d="M17.296,15.457C18.393,14.724 19.682,14.333 21,14.333C22.768,14.333 24.464,15.036 25.714,16.286C26.964,17.536 27.667,19.232 27.667,21C27.667,22.319 27.276,23.607 26.543,24.704C25.811,25.8 24.77,26.655 23.551,27.159C22.333,27.664 20.993,27.796 19.7,27.539C18.406,27.281 17.218,26.646 16.286,25.714C15.354,24.782 14.719,23.594 14.462,22.301C14.204,21.007 14.336,19.667 14.841,18.449C15.346,17.231 16.2,16.189 17.296,15.457Z" fill="#FFFFFF" stroke="#FFFFFF" stroke-width="1" stroke-miterlimit="3.999327"/>
<rect  x="304" y="0" width="40" height="40" rx="31" fill="#FFB01D" stroke="#FFB01D" stroke-width="1" stroke-miterlimit="3.999327"/>
<path d="M321.296,15.457C322.393,14.724 323.682,14.333 325,14.333C326.768,14.333 328.464,15.036 329.714,16.286C330.964,17.536 331.667,19.232 331.667,21C331.667,22.319 331.276,23.607 330.543,24.704C329.811,25.8 328.77,26.655 327.551,27.159C326.333,27.664 324.993,27.796 323.7,27.539C322.406,27.281 321.218,26.646 320.286,25.714C319.354,24.782 318.719,23.594 318.462,22.301C318.204,21.007 318.336,19.667 318.841,18.449C319.346,17.231 320.2,16.189 321.296,15.457Z" fill="#FFFFFF" stroke="#FFFFFF" stroke-width="1" stroke-miterlimit="3.999327"/>
</svg>
